<?xml version="1.0" encoding="UTF-8" ?>
<!DOCTYPE svg PUBLIC "-//W3C//DTD SVG 1.1//EN" "http://www.w3.org/Graphics/SVG/1.1/DTD/svg11.dtd">
<svg width="512pt" height="512pt" viewBox="0 0 512 512" version="1.1" xmlns="http://www.w3.org/2000/svg">
<g id="#0064b9ff">
<path fill="#0064b9" opacity="1.00" d=" M 253.54 0.00 L 259.59 0.00 C 286.05 0.81 312.51 4.86 337.61 13.47 C 397.64 33.45 449.39 76.76 479.88 132.16 C 497.74 164.29 508.48 200.36 511.10 237.02 C 511.35 243.10 511.88 249.17 512.00 255.26 L 512.00 256.77 C 511.50 271.24 510.63 285.73 508.03 300.00 C 501.66 337.00 486.90 372.52 465.24 403.19 C 444.70 432.35 418.01 457.17 387.42 475.52 C 351.41 497.15 309.96 509.75 267.98 511.48 C 266.07 511.58 264.16 511.77 262.27 512.00 L 251.52 512.00 C 230.80 511.13 210.08 508.73 190.03 503.24 C 145.61 491.47 104.55 467.37 72.61 434.33 C 30.72 391.62 4.65 333.70 0.84 273.97 C 0.62 269.51 0.29 265.05 0.00 260.59 L 0.00 253.59 C 0.44 247.38 0.65 241.15 1.02 234.93 C 2.78 214.69 6.71 194.60 13.20 175.33 C 27.29 132.53 53.15 93.74 86.98 64.01 C 119.26 35.44 158.93 15.27 201.07 6.12 C 218.29 2.18 235.93 0.70 253.54 0.00 M 191.71 111.99 C 182.12 148.99 172.42 185.98 162.86 222.99 C 162.26 225.80 164.20 228.89 167.12 229.24 C 189.52 235.11 211.94 240.94 234.36 246.75 C 230.28 267.46 225.75 288.08 221.71 308.80 C 214.52 311.14 208.13 315.70 203.91 322.02 C 178.96 322.14 154.01 322.08 129.07 322.05 C 128.89 312.36 129.38 302.63 128.83 292.99 C 127.10 287.90 121.16 288.99 116.99 288.99 C 113.36 289.33 108.73 287.86 106.12 291.19 C 104.54 292.71 104.96 295.06 104.87 297.04 C 104.91 331.03 104.86 365.03 104.90 399.03 C 104.72 401.89 107.25 404.48 110.11 404.47 C 114.72 404.48 119.33 404.59 123.93 404.45 C 126.71 404.39 129.13 401.85 129.05 399.08 C 129.09 384.42 129.01 369.76 129.09 355.10 C 153.97 355.02 178.85 355.12 203.73 355.05 C 210.83 366.19 225.16 371.92 237.93 368.30 C 250.18 365.10 259.89 353.61 260.44 340.88 C 261.56 329.54 255.44 318.14 245.76 312.30 C 249.75 292.47 253.74 272.61 258.20 252.90 C 290.06 261.38 322.02 269.48 353.89 277.91 C 356.38 278.73 359.71 278.78 361.26 276.28 C 385.00 243.03 408.61 209.68 432.35 176.43 C 435.16 173.38 433.14 168.21 429.09 167.67 C 352.37 147.72 275.67 127.74 198.96 107.78 C 195.87 106.61 192.16 108.70 191.71 111.99 M 414.27 213.08 C 412.75 213.89 411.46 215.27 411.09 216.99 C 406.66 234.37 402.01 251.69 397.60 269.07 C 396.90 271.81 398.56 274.96 401.36 275.69 C 407.89 277.38 414.41 279.14 420.96 280.77 C 423.11 281.21 425.41 282.54 427.56 281.34 C 429.45 280.72 430.66 278.87 431.06 276.99 C 435.45 259.94 439.94 242.92 444.33 225.88 C 445.42 222.80 443.34 219.26 440.17 218.62 C 433.42 216.73 426.58 215.16 419.83 213.26 C 418.03 212.73 416.08 212.47 414.27 213.08 Z" />
</g>
<g id="#fdfdfdff">
</g>
</svg>
