<?xml version="1.0" encoding="UTF-8" ?>
<!DOCTYPE svg PUBLIC "-//W3C//DTD SVG 1.1//EN" "http://www.w3.org/Graphics/SVG/1.1/DTD/svg11.dtd">
<svg width="442pt" height="442pt" viewBox="0 0 442 442" version="1.1" xmlns="http://www.w3.org/2000/svg">
<g id="#ffffffff">
<path fill="#ffffff" opacity="1.00" d=" M 219.36 0.00 L 222.57 0.00 C 252.93 0.30 283.26 6.68 310.97 19.14 C 344.06 33.86 373.38 56.92 395.56 85.54 C 425.25 123.43 441.71 171.27 442.00 219.38 L 442.00 223.43 C 441.52 271.24 425.10 318.74 395.60 356.41 C 369.18 390.56 332.55 416.73 291.59 430.43 C 269.42 437.97 246.04 441.72 222.64 442.00 L 219.37 442.00 C 192.63 441.70 165.89 436.77 140.97 427.00 C 111.57 415.63 84.73 397.78 62.75 375.20 C 39.37 351.25 21.50 321.93 11.08 290.12 C 3.87 268.40 0.29 245.55 0.00 222.69 L 0.00 218.50 C 0.29 206.01 1.31 193.52 3.63 181.23 C 12.40 132.01 38.76 86.23 76.69 53.70 C 115.85 19.56 167.42 0.27 219.36 0.00 M 157.14 134.16 C 151.86 139.51 146.83 145.12 141.63 150.56 C 138.92 153.36 136.50 156.99 136.98 161.09 C 137.31 165.42 140.14 168.93 143.12 171.84 C 158.34 188.04 173.52 204.28 188.75 220.48 C 173.07 237.21 157.38 253.92 141.69 270.63 C 139.70 272.80 137.74 275.21 137.18 278.19 C 136.38 282.46 138.26 286.82 141.21 289.86 C 145.88 294.82 150.55 299.78 155.20 304.77 C 157.09 306.79 159.13 308.90 161.90 309.65 C 165.92 310.82 170.16 308.82 172.92 305.94 C 188.94 288.89 204.93 271.81 220.95 254.76 C 236.34 271.13 251.70 287.51 267.07 303.90 C 269.20 306.16 271.34 308.72 274.45 309.61 C 278.65 310.90 283.06 308.69 285.86 305.60 C 291.00 300.06 296.25 294.62 301.33 289.04 C 303.83 286.31 305.52 282.57 304.74 278.82 C 304.14 274.96 301.53 271.88 298.84 269.23 C 283.58 253.00 268.36 236.74 253.10 220.51 C 268.82 203.73 284.56 186.98 300.29 170.22 C 302.13 168.18 304.00 165.96 304.63 163.21 C 305.73 158.87 303.78 154.32 300.77 151.21 C 295.76 145.90 290.78 140.57 285.78 135.25 C 283.77 133.04 281.16 131.08 278.06 130.93 C 274.33 130.72 270.86 132.81 268.44 135.50 C 252.61 152.39 236.77 169.26 220.93 186.13 C 204.76 168.98 188.71 151.70 172.48 134.60 C 168.64 129.94 161.32 130.00 157.14 134.16 Z" />
</g>
</svg>
